# xmcd CD database file
#
# Track frame offsets:
#	150
#	20335
#	45960
#	73980
#	97795
#	127833
#	146248
#	163323
#	182695
#	214083
#	239015
#	241354
#	261374
#
# Disc length: 3987 seconds
#
# Revision: 0
# Processed by: cddbd v1.4PL0 Copyright (c) Steve Scherf et al.
# Submitted via: CDex 1.51
#
DISCID=bb0f910d
DTITLE=Charlie Haden - Pat Metheny - Beyond the Missouri Sky
DYEAR=1900
DGENRE=Jazz
TTITLE0=Waltz for Ruth
TTITLE1=Our Spanish Love Lesson
TTITLE2=Message to a Friend
TTITLE3=Two for the road
TTITLE4=First Song (for Ruth)
TTITLE5=The Moon is a Harsh Mistress
TTITLE6=The Precious Jewel
TTITLE7=He's gone Away
TTITLE8=The Moon Song
TTITLE9=Tears Of Rain
TTITLE10=Cinema Paradiso (love theme)
TTITLE11=Cinema Paradiso (main theme)
TTITLE12=Spiritual
EXTD=
EXTT0=
EXTT1=
EXTT2=
EXTT3=
EXTT4=
EXTT5=
EXTT6=
EXTT7=
EXTT8=
EXTT9=
EXTT10=
EXTT11=
EXTT12=
PLAYORDER=
